<svg height="875.691" viewBox="0 0 895.402 875.691" width="895.402" xmlns="http://www.w3.org/2000/svg"><path d="m16.016 863.37c234.941-239.354 626.417-236.076 874.386 7.321z" fill="#f0f0f0"/><g fill="none" stroke="#000"><path d="m16.516 863.87c234.941-239.354 626.417-236.076 874.386 7.321" stroke-width="3"/><path d="m811.497 803.477 34.14-64.248" stroke-width="2"/><path d="m819.81 709.62 50.302 58.998"/><path d="m877.86 762.245-16.145 12.667"/><path d="m871.049 753.9-16.145 12.667"/><path d="m865.329 746.949-16.145 12.667"/><path d="m859.474 740.252-16.145 12.667"/><path d="m853.034 732.785-16.145 12.668"/><path d="m846.264 724.21-16.145 12.667"/><path d="m839.397 716.813-16.145 12.667"/><path d="m833.559 710.084-16.145 12.668"/><path d="m828.079 703.875-16.145 12.667"/><path d="m827.656 703.875-16.145 12.667" stroke-width="2"/><path d="m70.486 815.494-38.384-61.807" stroke-width="2"/><path d="m55.878 722.409-46.219 62.248"/><path d="m1.5 778.82 16.96 11.552"/><path d="m7.734 770.035 16.96 11.552"/><path d="m12.974 762.715 16.96 11.552"/><path d="m18.365 755.639 16.961 11.553"/><path d="m24.288 747.756 16.961 11.553"/><path d="m30.466 738.745 16.96 11.552"/><path d="m36.82 730.903 16.96 11.552"/><path d="m42.192 723.797 16.96 11.552"/><path d="m47.242 717.232 16.96 11.553"/></g><path d="m811.011 716.042-594.691-520.844 276-175.5 334.836 683.677" fill="#cffcfc"/><path d="m216.32 118.443 216.986 203.255 106.303-83.558-125.413-238.14z" fill="#fff"/><path d="m479.32 341.531c-40.041 0-72.5-32.459-72.5-72.5 0-40.04 32.459-72.5 72.5-72.5 40.04 0 72.5 32.46 72.5 72.5 0 40.041-32.46 72.5-72.5 72.5z" fill="#f0f0f0"/><path d="m479.32 341.531c-40.041 0-72.5-32.459-72.5-72.5 0-40.04 32.459-72.5 72.5-72.5 40.04 0 72.5 32.46 72.5 72.5 0 40.041-32.46 72.5-72.5 72.5z" fill="none" stroke="#000" stroke-width="2"/><text transform="translate(478.82 268.531)"><tspan fill="#656565" font-family="Avenir-Medium" font-size="30" x="-39.75" y="9">Moon</tspan></text><text transform="translate(585.406 418.531)"><tspan fill="#656565" font-family="Avenir-Medium" font-size="30" x="-80.55" y="-11.5">Transmitted </tspan><tspan fill="#656565" font-family="Avenir-Medium" font-size="30" x="-39.15" y="29.5">signal</tspan></text><text transform="translate(225.406 462.031)"><tspan fill="#656565" font-family="Avenir-Medium" font-size="30" x="-37.635" y="-32">Weak </tspan><tspan fill="#656565" font-family="Avenir-Medium" font-size="30" x="-60.84" y="9">reflected </tspan><tspan fill="#656565" font-family="Avenir-Medium" font-size="30" x="-39.15" y="50">signal</tspan></text><path d="m449.489 337.284-398 379.258" fill="none" stroke="#000" stroke-dasharray="6 5"/><path d="m64.216 728.785 461.273-400.501" fill="none" stroke="#000" stroke-dasharray="10 7"/></svg>