<?xml version="1.0" encoding="utf-8"?>
<!-- Generator: Adobe Illustrator 25.3.0, SVG Export Plug-In . SVG Version: 6.00 Build 0)  -->
<svg version="1.1" id="Layer_1" xmlns="http://www.w3.org/2000/svg" xmlns:xlink="http://www.w3.org/1999/xlink" x="0px" y="0px"
	 viewBox="0 0 56.5 64.8" style="enable-background:new 0 0 56.5 64.8;" xml:space="preserve">
<style type="text/css">
	.st0{fill:#FFFFFF;}
</style>
<path class="st0" d="M19.7,59.3c-0.3,0.6-0.5,0.9-0.7,1c-0.2,0.1-0.4,0.1-0.6,0c-0.2-0.1-0.4-0.4-0.7-1l-3.2-6.5
	c-0.1-0.1-0.1-0.2-0.1-0.4c0-0.1,0-0.2,0-0.2c0-0.1,0.1-0.2,0.1-0.3l5.5-10.8c0.1-0.1,0.1-0.3,0-0.5l0,0c-0.1-0.2-0.3-0.3-0.5-0.3
	H8.7c-0.2,0-0.3,0-0.5,0c-0.1,0-0.1-0.1-0.2-0.2c-0.1-0.1-0.2-0.3-0.2-0.4l-3.6-7.3C4.1,32.3,4,32.2,4,32.1c0-0.1,0-0.2,0-0.2
	c0-0.1,0.1-0.2,0.1-0.4l13-26c0.3-0.6,0.5-0.9,0.7-1c0.2-0.1,0.4-0.1,0.6,0c0.2,0.1,0.4,0.4,0.7,1l3.2,6.4c0.1,0.1,0.1,0.2,0.1,0.4
	c0,0.1,0,0.2,0,0.2c0,0.1-0.1,0.2-0.1,0.4l-9.5,18.9c-0.1,0.1-0.1,0.3,0,0.4l0,0c0.1,0.2,0.3,0.3,0.4,0.3h13.7c0.2,0,0.3,0,0.5,0
	c0.1,0,0.2,0.1,0.2,0.2c0.1,0.1,0.2,0.3,0.2,0.4l2.3,4.5c0.1,0.1,0.1,0.2,0.1,0.3c0,0.1,0,0.2,0,0.2c0,0.1-0.1,0.2-0.1,0.3
	L19.7,59.3z"/>
<path class="st0" d="M39.1,59.8c-0.1,0.1-0.1,0.3-0.2,0.4c-0.1,0.1-0.1,0.1-0.2,0.2c-0.2,0-0.3,0-0.5,0h-7.4c-0.2,0-0.3,0-0.5,0
	c-0.1,0-0.2-0.1-0.2-0.2c-0.1-0.1-0.2-0.3-0.2-0.4l-3.1-6.2c-0.1-0.1-0.1-0.2-0.1-0.3c0-0.1,0-0.2,0-0.2c0-0.1,0.1-0.2,0.1-0.3
	l3.2-6.4c0.3-0.6,0.5-0.9,0.7-1c0.2-0.1,0.4-0.1,0.6,0c0.2,0.1,0.4,0.4,0.7,1l1.7,3.5c0.3,0.6,0.5,0.9,0.7,1c0.2,0.1,0.4,0.1,0.6,0
	c0.2-0.1,0.4-0.4,0.7-1l8.2-16.4c0.2-0.3,0.3-0.6,0.4-1c0-0.2,0-0.5,0-0.7c-0.1-0.4-0.2-0.7-0.4-1l-8.2-16.5c-0.3-0.6-0.5-0.9-0.7-1
	c-0.2-0.1-0.4-0.1-0.6,0c-0.2,0.1-0.4,0.4-0.7,1l-7.3,14.5c-0.1,0.1-0.1,0.3-0.2,0.4c-0.1,0.1-0.2,0.1-0.2,0.1c-0.2,0-0.3,0-0.5,0
	h-5.9c-0.6,0-0.9,0-1-0.1c-0.1-0.1-0.2-0.3-0.3-0.5c0-0.2,0.1-0.5,0.3-1L29.7,5c0.1-0.1,0.1-0.3,0.2-0.4c0.1-0.1,0.2-0.1,0.2-0.2
	c0.2,0,0.3,0,0.5,0h7.4c0.2,0,0.3,0,0.5,0c0.1,0,0.2,0.1,0.2,0.2C38.9,4.7,39,4.8,39.1,5l13,25.6c0.2,0.3,0.4,0.7,0.5,1
	c0,0.2,0,0.5,0,0.7c-0.1,0.4-0.2,0.7-0.4,1.1L39.1,59.8z"/>
</svg>
