<svg id="Layer_1" data-name="Layer 1" xmlns="http://www.w3.org/2000/svg" viewBox="0 0 56.5 64.8"><defs><style>.cls-1{fill:#ff5100;}</style></defs><title>Artboard 17</title><path class="cls-1" d="M19.74,59.34c-.31.61-.46.92-.67,1a.68.68,0,0,1-.56,0c-.21-.1-.36-.41-.67-1L14.6,52.82a1.33,1.33,0,0,1-.14-.36.49.49,0,0,1,0-.24,1.11,1.11,0,0,1,.15-.35L20.1,41.08a.59.59,0,0,0,0-.47h0a.55.55,0,0,0-.5-.32H8.66a1.37,1.37,0,0,1-.46,0A.64.64,0,0,1,8,40.1a1.45,1.45,0,0,1-.23-.4l-3.6-7.28A1.6,1.6,0,0,1,4,32.07a.7.7,0,0,1,0-.25,1.44,1.44,0,0,1,.14-.35l13-26c.31-.61.46-.91.67-1a.68.68,0,0,1,.56,0c.21.1.36.4.66,1l3.2,6.39a1.3,1.3,0,0,1,.14.35.49.49,0,0,1,0,.24,1.3,1.3,0,0,1-.14.35L12.75,31.72a.51.51,0,0,0,0,.45h0a.51.51,0,0,0,.45.28H26.89a1.37,1.37,0,0,1,.46,0,.61.61,0,0,1,.24.15,1.41,1.41,0,0,1,.24.4l2.27,4.54a1.42,1.42,0,0,1,.15.35,1,1,0,0,1,0,.24,1.42,1.42,0,0,1-.15.35Z"/><path class="cls-1" d="M39.07,59.84a1.41,1.41,0,0,1-.24.4.61.61,0,0,1-.24.15,1.41,1.41,0,0,1-.47,0H30.69a1.31,1.31,0,0,1-.46,0,.58.58,0,0,1-.25-.15,1.5,1.5,0,0,1-.24-.4l-3.08-6.16a1.42,1.42,0,0,1-.15-.35.53.53,0,0,1,0-.25,1.6,1.6,0,0,1,.15-.35l3.19-6.37c.3-.61.45-.92.66-1a.71.71,0,0,1,.57,0c.2.1.36.41.66,1l1.72,3.47c.31.61.46.92.66,1a.71.71,0,0,0,.57,0c.21-.1.36-.41.67-1l8.21-16.42a4.28,4.28,0,0,0,.44-1,2.24,2.24,0,0,0,0-.73,4.28,4.28,0,0,0-.44-1.05L35.35,14.15c-.3-.61-.45-.91-.66-1a.71.71,0,0,0-.57,0c-.2.1-.36.4-.66,1L26.2,28.66a1.3,1.3,0,0,1-.23.4.64.64,0,0,1-.25.15,1.34,1.34,0,0,1-.46,0H19.33c-.57,0-.85,0-1-.12a.65.65,0,0,1-.27-.45c0-.2.09-.46.34-1L29.74,5a1.7,1.7,0,0,1,.24-.4.7.7,0,0,1,.25-.15,1.31,1.31,0,0,1,.46,0h7.44a1.31,1.31,0,0,1,.46,0,.64.64,0,0,1,.25.15,1.63,1.63,0,0,1,.23.39l13,25.63a4,4,0,0,1,.45,1.05,1.8,1.8,0,0,1,0,.73,4.18,4.18,0,0,1-.43,1.06Z"/></svg>